# Blender 4.0.2
# www.blender.org
mtllib Tronco3.mtl
o Bark_3
v -13.325151 -0.000156 -8.609432
v -13.325151 0.115817 -8.602232
v -13.286318 -0.000097 -8.590732
v -13.292067 0.113014 -8.586242
v -13.276727 0.000035 -8.548711
v -13.283895 0.112321 -8.550313
v -13.303600 0.000140 -8.515013
v -13.306790 0.114261 -8.521500
v -13.346703 0.000140 -8.515013
v -13.343513 0.117373 -8.521500
v -13.373576 0.000035 -8.548711
v -13.366408 0.119312 -8.550313
v -13.363985 -0.000097 -8.590732
v -13.358236 0.118620 -8.586242
v -13.325151 -0.146529 -8.608516
v -13.286318 -0.146412 -8.589814
v -13.276727 -0.146149 -8.547794
v -13.303600 -0.145938 -8.514097
v -13.346703 -0.145938 -8.514097
v -13.373576 -0.146149 -8.547794
v -13.363985 -0.146412 -8.589814
v -13.266587 0.291025 -8.582371
v -13.294042 0.298091 -8.596023
v -13.259807 0.289280 -8.551695
v -13.278806 0.294170 -8.527094
v -13.309278 0.302012 -8.527094
v -13.328277 0.306901 -8.551695
v -13.321496 0.305156 -8.582371
v -13.198566 0.496460 -8.579782
v -13.221468 0.506739 -8.591870
v -13.192910 0.493921 -8.552618
v -13.208758 0.501035 -8.530835
v -13.234178 0.512444 -8.530835
v -13.250026 0.519558 -8.552618
v -13.244370 0.517019 -8.579782
v -13.129775 0.625810 -8.577336
v -13.148894 0.636767 -8.587949
v -13.125053 0.623104 -8.553491
v -13.138284 0.630686 -8.534369
v -13.159505 0.642848 -8.534369
v -13.172735 0.650430 -8.553491
v -13.168014 0.647724 -8.577336
v -13.011601 0.832920 -8.574823
v -13.027939 0.842392 -8.583918
v -13.007566 0.830580 -8.554388
v -13.018872 0.837135 -8.538001
v -13.037004 0.847649 -8.538001
v -13.048310 0.854204 -8.554388
v -13.044275 0.851864 -8.574823
v -12.939795 0.961212 -8.573790
v -12.955365 0.969396 -8.582260
v -12.935950 0.959191 -8.554757
v -12.946725 0.964854 -8.539494
v -12.964005 0.973937 -8.539494
v -12.974780 0.979600 -8.554757
v -12.970935 0.977579 -8.573790
v -12.781702 1.351830 -8.573790
v -12.798672 1.356458 -8.582260
v -12.777511 1.350687 -8.554757
v -12.789254 1.353889 -8.539494
v -12.808088 1.359026 -8.539494
v -12.819832 1.362229 -8.554757
v -12.815640 1.361086 -8.573790
v -12.809755 1.249132 -8.573790
v -12.839368 1.169914 -8.573790
v -12.855855 1.176071 -8.582260
v -12.826261 1.255299 -8.582260
v -12.805679 1.247609 -8.554757
v -12.835296 1.168394 -8.554757
v -12.817101 1.251877 -8.539494
v -12.846705 1.172654 -8.539494
v -12.835421 1.258720 -8.539494
v -12.865004 1.179489 -8.539494
v -12.846844 1.262983 -8.554757
v -12.876411 1.183753 -8.554757
v -12.842767 1.261462 -8.573790
v -12.872340 1.182231 -8.573790
v -12.780056 1.310339 -8.583787
v -12.787557 1.282910 -8.583781
v -12.816199 1.292188 -8.598211
v -12.808731 1.319571 -8.598210
v -12.772956 1.308053 -8.551185
v -12.780466 1.280614 -8.551188
v -12.837279 1.328762 -8.583680
v -12.844733 1.301432 -8.583690
v -12.800318 1.287043 -8.525085
v -12.792833 1.314453 -8.525081
v -12.824591 1.324677 -8.525167
v -12.832047 1.297322 -8.525159
v -12.851764 1.303709 -8.551228
v -12.844310 1.331025 -8.551232
vn 0.0010 0.0277 -0.9996
vn -0.0194 0.0498 -0.9986
vn 0.7725 -0.0151 -0.6348
vn 0.7816 0.0298 -0.6230
vn 0.9732 -0.0314 0.2277
vn 0.9747 0.0327 0.2212
vn 0.4162 0.0141 0.9091
vn 0.4350 0.0342 0.8998
vn -0.4463 0.0851 0.8908
vn -0.4335 0.0335 0.9006
vn -0.9676 0.1283 0.2175
vn -0.9746 0.0312 0.2216
vn -0.0163 0.0312 -0.9994
vn 0.7545 -0.1661 -0.6350
vn -0.7828 0.1130 -0.6119
vn -0.7809 0.0286 -0.6240
vn -0.0000 -0.0063 -1.0000
vn -0.7818 -0.0039 -0.6235
vn 0.9749 0.0014 0.2225
vn 0.7818 -0.0039 -0.6235
vn -0.9749 0.0014 0.2225
vn -0.4339 0.0056 0.9010
vn 0.4339 0.0056 0.9010
vn -0.7592 0.2214 -0.6120
vn -0.7124 0.3433 -0.6121
vn -0.0129 0.0304 -0.9995
vn 0.9495 -0.2160 0.2277
vn 0.4078 -0.0774 0.9098
vn -0.9387 0.2673 0.2175
vn -0.4319 0.1375 0.8914
vn -0.8815 0.4190 0.2175
vn -0.8354 0.5030 0.2215
vn -0.6691 0.4078 -0.6213
vn -0.4041 0.2054 0.8913
vn 0.8975 -0.3775 0.2281
vn 0.3865 -0.1485 0.9102
vn 0.7134 -0.2949 -0.6357
vn -0.3685 0.2358 0.8992
vn -0.3671 0.2292 0.9015
vn -0.8361 0.5012 0.2228
vn 0.3847 -0.1955 0.9021
vn 0.6879 -0.3693 -0.6249
vn 0.8563 -0.4658 0.2231
vn 0.0075 0.0205 -0.9998
vn 0.8505 -0.4768 0.2221
vn 0.6840 -0.3802 -0.6226
vn 0.6981 -0.3605 -0.6186
vn 0.8661 -0.4487 0.2203
vn 0.3836 -0.2061 0.9002
vn 0.0085 0.0114 -0.9999
vn -0.6687 0.4041 -0.6242
vn -0.6860 0.3672 -0.6282
vn 0.0114 0.0005 -0.9999
vn -0.3744 0.2033 0.9047
vn -0.8598 0.4586 0.2246
vn 0.3938 -0.2006 0.8970
vn -0.6888 0.3873 -0.6128
vn -0.8716 0.4387 0.2187
vn -0.4007 0.9048 0.1438
vn -0.2804 0.8712 -0.4030
vn 0.0114 -0.0055 -0.9999
vn 0.7235 -0.3084 -0.6176
vn -0.0553 -0.2002 -0.9782
vn -0.7888 0.0322 -0.6138
vn -0.7939 0.0256 -0.6076
vn -0.0591 -0.1774 -0.9824
vn -0.9715 0.0899 0.2194
vn -0.9734 0.0751 0.2164
vn -0.4612 -0.0715 0.8844
vn -0.4684 -0.0643 0.8812
vn 0.7903 -0.0286 -0.6120
vn 0.0512 0.1794 -0.9824
vn 0.2066 0.7351 -0.6458
vn 0.6925 0.5990 -0.4021
vn -0.0636 0.8106 0.5821
vn 0.4764 0.6595 0.5815
vn 0.8122 0.5654 0.1435
vn -0.3896 0.1658 0.9059
vn -0.8960 0.3827 0.2254
vn 0.8975 -0.3822 0.2199
vn 0.4081 -0.1745 0.8961
vn -0.7144 0.3048 -0.6299
vn 0.6687 -0.4306 -0.6061
vn 0.8462 -0.4872 0.2160
vn 0.3477 -0.3282 0.8783
vn 0.9726 -0.0799 0.2184
vn 0.6871 -0.3836 -0.6170
vn -0.3594 0.2948 0.8854
vn 0.4616 0.0639 0.8848
vn 0.3537 -0.2914 0.8888
vn 0.8730 -0.4349 0.2206
vt 0.087507 0.053690
vt 0.158831 0.055475
vt 0.158187 0.079473
vt 0.087058 0.078879
vt 0.158193 0.103689
vt 0.086923 0.104065
vt 0.158615 0.127872
vt 0.087259 0.129345
vt 0.159723 0.151616
vt 0.087932 0.154875
vt 0.161521 0.174525
vt 0.089109 0.180818
vt 0.277937 0.061479
vt 0.277285 0.081727
vt 0.089650 0.002061
vt 0.162037 0.009365
vt 0.160100 0.032042
vt 0.088282 0.028165
vt 0.000260 0.052251
vt 0.000748 0.026082
vt 0.000059 0.104465
vt 0.000045 0.078392
vt 0.001119 0.182628
vt 0.000642 0.156533
vt 0.000272 0.130496
vt 0.001343 0.000045
vt 0.279020 0.041466
vt 0.418722 0.048502
vt 0.417938 0.065720
vt 0.277152 0.102164
vt 0.277738 0.122522
vt 0.280483 0.021824
vt 0.278799 0.142632
vt 0.280250 0.162321
vt 0.419870 0.031348
vt 0.511712 0.039807
vt 0.510755 0.054793
vt 0.418695 0.135872
vt 0.419850 0.153048
vt 0.417442 0.100909
vt 0.417889 0.118534
vt 0.417502 0.083188
vt 0.511652 0.144475
vt 0.510697 0.129530
vt 0.655966 0.124059
vt 0.656450 0.136790
vt 0.510045 0.114610
vt 0.509736 0.084685
vt 0.509719 0.099663
vt 0.510088 0.069743
vt 0.655490 0.098637
vt 0.655501 0.085886
vt 0.744355 0.086443
vt 0.744356 0.098251
vt 0.655645 0.111368
vt 0.655679 0.073170
vt 0.656527 0.047740
vt 0.656022 0.060482
vt 0.744550 0.062863
vt 0.744417 0.074652
vt 0.744499 0.121821
vt 0.744669 0.133657
vt 0.744393 0.110045
vt 0.744748 0.051010
vt 0.975769 0.058793
vt 0.979879 0.041522
vt 0.999955 0.053428
vt 0.995901 0.064130
vt 0.883492 0.074828
vt 0.884073 0.086654
vt 0.938313 0.073475
vt 0.937764 0.060504
vt 0.962469 0.058172
vt 0.961756 0.072910
vt 0.936030 0.047715
vt 0.962349 0.039107
vt 0.935888 0.137509
vt 0.937562 0.124782
vt 0.961952 0.127587
vt 0.961799 0.146576
vt 0.972358 0.086243
vt 0.973543 0.073002
vt 0.994356 0.075475
vt 0.994174 0.086988
vt 0.016887 0.182718
vt 0.026233 0.190172
vt 0.026233 0.202126
vt 0.016887 0.209579
vt 0.005232 0.206919
vt 0.000045 0.196149
vt 0.005232 0.185378
vt 0.882924 0.122047
vt 0.882225 0.133860
vt 0.884197 0.098459
vt 0.883711 0.110251
vt 0.882344 0.051106
vt 0.882794 0.062917
vt 0.938362 0.086358
vt 0.938754 0.099047
vt 0.938147 0.111842
vt 0.972031 0.099404
vt 0.994904 0.098728
vt 0.961105 0.086392
vt 0.975287 0.127174
vt 0.973133 0.112801
vt 0.994815 0.110549
vt 0.996110 0.122101
vt 0.961315 0.112841
vt 0.960754 0.099471
vt 0.979384 0.144563
vt 0.999955 0.133012
s 1
usemtl Bark_3
f 1/1/1 2/2/2 4/3/3 3/4/4
f 3/4/4 4/3/3 6/5/5 5/6/6
f 5/6/6 6/5/5 8/7/7 7/8/8
f 7/8/8 8/7/7 10/9/9 9/10/10
f 9/10/10 10/9/9 12/11/11 11/12/12
f 4/3/3 2/2/2 23/13/13 22/14/14
f 11/15/12 12/16/11 14/17/15 13/18/16
f 13/18/16 14/17/15 2/2/2 1/1/1
f 13/18/16 1/1/1 15/19/17 21/20/18
f 3/4/4 5/6/6 17/21/19 16/22/20
f 9/10/10 11/12/12 20/23/21 19/24/22
f 1/1/1 3/4/4 16/22/20 15/19/17
f 5/6/6 7/8/8 18/25/23 17/21/19
f 11/15/12 13/18/16 21/20/18 20/26/21
f 7/8/8 9/10/10 19/24/22 18/25/23
f 23/13/13 28/27/24 35/28/25 30/29/26
f 8/7/7 6/5/5 24/30/27 25/31/28
f 14/17/15 12/16/11 27/32/29 28/27/24
f 10/9/9 8/7/7 25/31/28 26/33/30
f 2/2/2 14/17/15 28/27/24 23/13/13
f 6/5/5 4/3/3 22/14/14 24/30/27
f 12/11/11 10/9/9 26/33/30 27/34/29
f 35/28/25 34/35/31 41/36/32 42/37/33
f 27/34/29 26/33/30 33/38/34 34/39/31
f 25/31/28 24/30/27 31/40/35 32/41/36
f 22/14/14 23/13/13 30/29/26 29/42/37
f 28/27/24 27/32/29 34/35/31 35/28/25
f 26/33/30 25/31/28 32/41/36 33/38/34
f 24/30/27 22/14/14 29/42/37 31/40/35
f 41/43/32 40/44/38 47/45/39 48/46/40
f 33/38/34 32/41/36 39/47/41 40/44/38
f 31/40/35 29/42/37 36/48/42 38/49/43
f 30/29/26 35/28/25 42/37/33 37/50/44
f 34/39/31 33/38/34 40/44/38 41/43/32
f 32/41/36 31/40/35 38/49/43 39/47/41
f 29/42/37 30/29/26 37/50/44 36/48/42
f 45/51/45 43/52/46 50/53/47 52/54/48
f 39/47/41 38/49/43 45/51/45 46/55/49
f 36/48/42 37/50/44 44/56/50 43/52/46
f 42/37/33 41/36/32 48/57/40 49/58/51
f 40/44/38 39/47/41 46/55/49 47/45/39
f 38/49/43 36/48/42 43/52/46 45/51/45
f 37/50/44 42/37/33 49/58/51 44/56/50
f 44/56/50 49/58/51 56/59/52 51/60/53
f 48/46/40 47/45/39 54/61/54 55/62/55
f 46/55/49 45/51/45 52/54/48 53/63/56
f 43/52/46 44/56/50 51/60/53 50/53/47
f 49/58/51 48/57/40 55/64/55 56/59/52
f 47/45/39 46/55/49 53/63/56 54/61/54
f 84/65/57 91/66/58 62/67/59 63/68/60
f 50/53/47 51/60/53 66/69/61 65/70/62
f 67/71/63 76/72/64 85/73/65 80/74/66
f 76/72/64 74/75/67 90/76/68 85/73/65
f 74/77/67 72/78/69 89/79/70 90/80/68
f 78/81/71 81/82/72 58/83/73 57/84/74
f 57/85/74 58/86/73 63/87/60 62/88/59 61/89/75 60/90/76 59/91/77
f 55/62/55 54/61/54 73/92/78 75/93/79
f 53/63/56 52/54/48 69/94/80 71/95/81
f 52/54/48 50/53/47 65/70/62 69/94/80
f 56/59/52 55/64/55 75/96/79 77/97/82
f 54/61/54 53/63/56 71/95/81 73/92/78
f 51/60/53 56/59/52 77/97/82 66/69/61
f 65/70/62 66/69/61 67/71/63 64/98/83
f 69/94/80 65/70/62 64/98/83 68/99/84
f 71/95/81 69/94/80 68/99/84 70/100/85
f 73/92/78 71/95/81 70/100/85 72/78/69
f 75/93/79 73/92/78 72/78/69 74/77/67
f 77/97/82 75/96/79 74/75/67 76/72/64
f 66/69/61 77/97/82 76/72/64 67/71/63
f 81/82/72 84/65/57 63/68/60 58/83/73
f 82/101/86 78/81/71 57/84/74 59/102/77
f 64/98/83 67/71/63 80/74/66 79/103/87
f 88/104/88 87/105/89 60/106/76 61/107/75
f 72/78/69 70/100/85 86/108/90 89/79/70
f 70/100/85 68/99/84 83/109/91 86/108/90
f 91/110/58 88/104/88 61/107/75 62/111/59
f 87/105/89 82/101/86 59/102/77 60/106/76
f 81/82/72 78/81/71 79/103/87 80/74/66
f 78/81/71 82/101/86 83/109/91 79/103/87
f 87/105/89 88/104/88 89/79/70 86/108/90
f 91/66/58 84/65/57 85/73/65 90/76/68
f 84/65/57 81/82/72 80/74/66 85/73/65
f 88/104/88 91/110/58 90/80/68 89/79/70
f 82/101/86 87/105/89 86/108/90 83/109/91
f 68/99/84 64/98/83 79/103/87 83/109/91
