# Blender 4.0.2
# www.blender.org
mtllib Tronco1.mtl
o Bark_1.001
v 12.254843 0.000001 9.707057
v 12.254843 0.115818 9.707057
v 12.293675 0.000136 9.725758
v 12.293462 0.119892 9.725758
v 12.303267 0.000170 9.767778
v 12.302999 0.120898 9.767778
v 12.276394 0.000076 9.801477
v 12.276275 0.118079 9.801477
v 12.233292 -0.000074 9.801477
v 12.233411 0.113557 9.801477
v 12.206419 -0.000168 9.767778
v 12.206686 0.110738 9.767778
v 12.216010 -0.000134 9.725758
v 12.216224 0.111744 9.725758
v 12.259943 0.239174 9.731853
v 12.231009 0.227527 9.716833
v 12.267090 0.242051 9.765603
v 12.247066 0.233991 9.792669
v 12.214952 0.221064 9.792669
v 12.194929 0.213004 9.765603
v 12.202076 0.215881 9.731853
v 12.191352 0.339355 9.736420
v 12.171669 0.323199 9.724156
v 12.196213 0.343345 9.763973
v 12.182591 0.332165 9.786071
v 12.160746 0.314234 9.786071
v 12.147124 0.303054 9.763973
v 12.151985 0.307044 9.736420
v 12.093674 0.426861 9.738721
v 12.079630 0.409183 9.727849
v 12.097142 0.431227 9.763152
v 12.087423 0.418994 9.782744
v 12.071836 0.399373 9.782744
v 12.062117 0.387139 9.763152
v 12.065586 0.391505 9.738721
v 12.006183 0.482714 9.740693
v 11.994857 0.466102 9.731010
v 12.008980 0.486816 9.762448
v 12.001143 0.475321 9.779895
v 11.988571 0.456883 9.779896
v 11.980734 0.445388 9.762448
v 11.983531 0.449490 9.740693
v 11.929686 0.534085 9.741483
v 11.916140 0.520599 9.732277
v 11.933031 0.537416 9.762167
v 11.923657 0.528083 9.778754
v 11.908622 0.513115 9.778754
v 11.899247 0.503782 9.762167
v 11.902593 0.507113 9.741483
v 11.873911 0.613620 9.742441
v 11.858009 0.605372 9.733814
v 11.877838 0.615657 9.761825
v 11.866834 0.609949 9.777369
v 11.849185 0.600794 9.777369
v 11.838181 0.595086 9.761825
v 11.842109 0.597123 9.742441
v 11.837428 0.704508 9.744548
v 11.822889 0.699833 9.737193
v 11.841019 0.705662 9.761073
v 11.830957 0.702427 9.774325
v 11.814821 0.697238 9.774325
v 11.804760 0.694003 9.761073
v 11.808351 0.695158 9.744548
v 11.800290 0.835551 9.745595
v 11.786558 0.833047 9.738873
v 11.803681 0.836169 9.760699
v 11.794179 0.834436 9.772812
v 11.778937 0.831657 9.772812
v 11.769435 0.829925 9.760699
v 11.772826 0.830543 9.745595
v 11.789577 0.949158 9.745595
v 11.775659 0.948096 9.738873
v 11.793015 0.949420 9.760699
v 11.783382 0.948685 9.772812
v 11.767935 0.947506 9.772812
v 11.758304 0.946771 9.760699
v 11.761741 0.947033 9.745595
v 11.788164 1.032663 9.742867
v 11.770815 1.031658 9.734498
v 11.792449 1.032912 9.761673
v 11.780443 1.032216 9.776753
v 11.761187 1.031099 9.776753
v 11.749180 1.030403 9.761673
v 11.753465 1.030651 9.742867
v 12.255856 -0.145321 9.707057
v 12.294688 -0.145050 9.725758
v 12.304278 -0.144983 9.767778
v 12.277406 -0.145171 9.801477
v 12.234305 -0.145471 9.801477
v 12.207433 -0.145658 9.767778
v 12.217023 -0.145591 9.725758
v 11.757332 0.998528 9.788660
v 11.758801 0.979534 9.787896
v 11.740118 0.978293 9.764426
v 11.738189 0.997263 9.764615
v 11.807134 1.001818 9.764608
v 11.807409 0.982763 9.764420
v 11.788750 0.981524 9.787884
v 11.788015 1.000555 9.788648
v 11.772676 0.999542 9.721290
v 11.773779 0.980529 9.722137
v 11.800751 0.982321 9.735168
v 11.800311 1.001368 9.734639
v 11.746787 0.978736 9.735152
v 11.745022 0.997715 9.734624
vn -0.0010 0.0002 -1.0000
vn 0.0197 0.0447 -0.9988
vn 0.7819 0.1227 -0.6112
vn 0.7818 0.0034 -0.6235
vn 0.9658 0.1418 0.2172
vn 0.9749 0.0043 0.2225
vn 0.4462 0.0881 0.8906
vn 0.4335 0.0019 0.9011
vn -0.4159 0.0011 0.9094
vn -0.4351 -0.0011 0.9004
vn -0.9723 -0.0531 0.2275
vn -0.9750 -0.0024 0.2220
vn 0.7141 0.3604 -0.6001
vn 0.8796 0.4255 0.2126
vn -0.7721 -0.0338 -0.6346
vn -0.7826 -0.0020 -0.6226
vn -0.7818 -0.0054 -0.6235
vn -0.9749 -0.0068 0.2225
vn 0.0181 0.0875 -0.9960
vn -0.7334 -0.2057 -0.6480
vn -0.6226 -0.4463 -0.6427
vn 0.0014 0.0612 -0.9981
vn -0.3907 -0.0722 0.9177
vn -0.9303 -0.2823 0.2340
vn 0.4099 0.2410 0.8797
vn -0.3400 -0.2162 0.9152
vn 0.3314 0.3291 0.8842
vn 0.2586 0.3721 0.8914
vn -0.2818 -0.3059 0.9094
vn -0.7831 -0.5772 0.2313
vn 0.7283 0.6509 0.2141
vn 0.5884 0.5375 -0.6040
vn 0.4695 0.6363 -0.6121
vn -0.0090 0.0366 -0.9993
vn -0.0191 0.0119 -0.9997
vn 0.4216 0.6595 -0.6223
vn 0.5852 0.7812 0.2175
vn -0.5045 -0.5857 -0.6344
vn -0.6295 -0.7430 0.2274
vn -0.4602 -0.6341 -0.6214
vn -0.5754 -0.5536 -0.6020
vn -0.0451 -0.0249 -0.9987
vn -0.5685 -0.7923 0.2215
vn 0.2259 0.3716 0.9005
vn -0.2642 -0.3474 0.8997
vn 0.5297 0.8187 0.2219
vn -0.7019 -0.6796 0.2134
vn -0.8763 -0.4309 0.2154
vn -0.7150 -0.3465 -0.6073
vn -0.3434 -0.3224 0.8821
vn 0.6772 0.6971 0.2353
vn 0.2659 0.2856 0.9207
vn 0.5270 0.5466 -0.6508
vn 0.3491 0.2085 0.9136
vn 0.8524 0.4696 0.2300
vn 0.9202 0.3203 0.2250
vn 0.3960 0.1516 0.9056
vn -0.4192 -0.1920 0.8874
vn 0.6705 0.3754 -0.6399
vn -0.0407 0.0055 -0.9992
vn -0.0197 0.0176 -0.9997
vn -0.7561 -0.2202 -0.6163
vn -0.7788 -0.1361 -0.6124
vn -0.0248 0.0016 -0.9997
vn 0.7325 0.2599 -0.6292
vn -0.9352 -0.2780 0.2193
vn -0.4306 -0.1150 0.8952
vn -0.9612 -0.1694 0.2177
vn -0.9222 -0.3223 0.2139
vn -0.7381 -0.3084 -0.6001
vn -0.4464 -0.0754 0.8917
vn 0.9567 0.1808 0.2282
vn 0.4057 0.0802 0.9105
vn 0.7581 0.1445 -0.6359
vn -0.4050 -0.2833 0.8693
vn 0.4327 -0.2203 0.8742
vn 0.4361 -0.2184 0.8730
vn -0.4041 -0.2677 0.8747
vn 0.7711 -0.1949 -0.6061
vn 0.9594 -0.1808 0.2166
vn 0.0127 -0.2519 -0.9677
vn 0.4607 0.7902 -0.4041
vn -0.0451 0.7603 -0.6480
vn -0.5509 0.7303 -0.4040
vn -0.6757 0.7229 0.1442
vn -0.3258 0.7436 0.5838
vn 0.2356 0.7769 0.5839
vn 0.5856 0.7977 0.1442
vn 0.7721 -0.1987 -0.6036
vn 0.9583 -0.1878 0.2153
vn -0.7419 -0.2874 -0.6058
vn 0.0164 -0.2430 -0.9699
vn 0.9507 0.2192 0.2196
vn 0.7604 0.2079 -0.6152
vn -0.9296 -0.2985 0.2163
vn -0.4339 -0.0030 0.9010
vn 0.4339 0.0030 0.9010
vn -0.0000 -0.0000 -1.0000
vn 0.9749 0.0068 0.2225
vn 0.7818 0.0054 -0.6235
vn -0.0097 0.1621 -0.9867
vn -0.7797 0.1163 -0.6152
vn -0.9699 0.1050 0.2196
vn 0.4177 0.1875 0.8890
vn -0.4370 0.1367 0.8890
vt 0.892774 0.064464
vt 0.807929 0.062859
vt 0.806845 0.031689
vt 0.893102 0.032702
vt 0.804862 0.000051
vt 0.893296 0.000676
vt 0.893656 0.222877
vt 0.805570 0.225018
vt 0.807118 0.193132
vt 0.893179 0.191042
vt 0.807870 0.161196
vt 0.892731 0.159377
vt 0.808069 0.128243
vt 0.892506 0.127746
vt 0.716184 0.039583
vt 0.712433 0.013855
vt 0.808197 0.094987
vt 0.892506 0.096075
vt 0.999449 0.096078
vt 0.999416 0.127580
vt 0.718807 0.067232
vt 0.720109 0.096661
vt 0.627573 0.099548
vt 0.626027 0.075972
vt 0.718793 0.157007
vt 0.719980 0.126913
vt 0.712283 0.212076
vt 0.716154 0.185650
vt 0.626144 0.148198
vt 0.623401 0.171081
vt 0.524094 0.160185
vt 0.525791 0.141091
vt 0.627833 0.124073
vt 0.619988 0.192807
vt 0.623613 0.053561
vt 0.620571 0.031984
vt 0.524563 0.063337
vt 0.525989 0.082228
vt 0.449279 0.086575
vt 0.448170 0.070373
vt 0.522560 0.044604
vt 0.526782 0.101610
vt 0.526791 0.121448
vt 0.521812 0.178943
vt 0.449869 0.102914
vt 0.381570 0.104142
vt 0.381358 0.089890
vt 0.449824 0.119481
vt 0.447756 0.152140
vt 0.449078 0.135927
vt 0.446626 0.053884
vt 0.445970 0.168556
vt 0.381462 0.117924
vt 0.311605 0.117028
vt 0.311615 0.103938
vt 0.381095 0.131881
vt 0.379291 0.161517
vt 0.380380 0.146407
vt 0.380796 0.074967
vt 0.379897 0.059728
vt 0.310791 0.143387
vt 0.309964 0.157330
vt 0.240965 0.151554
vt 0.241598 0.139575
vt 0.311269 0.130114
vt 0.311172 0.077345
vt 0.310472 0.063254
vt 0.311494 0.090801
vt 0.242226 0.092227
vt 0.242286 0.104023
vt 0.145124 0.104137
vt 0.145201 0.093283
vt 0.241966 0.080511
vt 0.242195 0.115978
vt 0.241984 0.127850
vt 0.241448 0.068472
vt 0.145076 0.114901
vt 0.055248 0.115214
vt 0.056121 0.102933
vt 0.145032 0.125690
vt 0.145023 0.147422
vt 0.145019 0.136547
vt 0.145315 0.082355
vt 0.145438 0.071462
vt 0.056598 0.127440
vt 0.058164 0.139497
vt 0.032996 0.143689
vt 0.032242 0.128990
vt 0.058484 0.078673
vt 0.060773 0.066939
vt 0.057074 0.090732
vt 0.060496 0.151176
vt 0.020215 0.225119
vt 0.031405 0.234043
vt 0.031405 0.248356
vt 0.020215 0.257280
vt 0.006261 0.254095
vt 0.000051 0.241200
vt 0.006261 0.228304
vt 0.033075 0.074736
vt 0.034870 0.055392
vt 0.031976 0.102903
vt 0.032336 0.089499
vt 0.021259 0.055694
vt 0.022980 0.074253
vt 0.003205 0.077106
vt 0.000208 0.064671
vt 0.032085 0.115779
vt 0.034942 0.162924
vt 0.999533 0.159067
vt 0.999726 0.190564
vt 0.999574 0.064570
vt 0.999949 0.001332
vt 0.999754 0.033001
vt 0.999949 0.222126
vt 0.023424 0.088976
vt 0.023485 0.102536
vt 0.003350 0.102534
vt 0.003775 0.089769
vt 0.023610 0.115857
vt 0.002403 0.115671
vt 0.022917 0.144257
vt 0.021382 0.162859
vt 0.000051 0.154240
vt 0.002824 0.141683
vt 0.023341 0.129463
vt 0.003130 0.128841
s 1
usemtl Bark_1.001
f 1/1/1 2/2/2 4/3/3 3/4/4
f 3/4/4 4/3/3 6/5/5 5/6/6
f 5/7/6 6/8/5 8/9/7 7/10/8
f 7/10/8 8/9/7 10/11/9 9/12/10
f 9/12/10 10/11/9 12/13/11 11/14/12
f 6/5/5 4/3/3 15/15/13 17/16/14
f 11/14/12 12/13/11 14/17/15 13/18/16
f 13/18/16 14/17/15 2/2/2 1/1/1
f 11/14/12 13/18/16 91/19/17 90/20/18
f 16/21/19 21/22/20 28/23/21 23/24/22
f 12/13/11 10/11/9 19/25/23 20/26/24
f 4/3/3 2/2/2 16/21/19 15/15/13
f 8/9/7 6/8/5 17/27/14 18/28/25
f 14/17/15 12/13/11 20/26/24 21/22/20
f 10/11/9 8/9/7 18/28/25 19/25/23
f 2/2/2 14/17/15 21/22/20 16/21/19
f 26/29/26 25/30/27 32/31/28 33/32/29
f 20/26/24 19/25/23 26/29/26 27/33/30
f 18/28/25 17/27/14 24/34/31 25/30/27
f 15/15/13 16/21/19 23/24/22 22/35/32
f 21/22/20 20/26/24 27/33/30 28/23/21
f 19/25/23 18/28/25 25/30/27 26/29/26
f 17/16/14 15/15/13 22/35/32 24/36/31
f 29/37/33 30/38/34 37/39/35 36/40/36
f 24/36/31 22/35/32 29/37/33 31/41/37
f 23/24/22 28/23/21 35/42/38 30/38/34
f 27/33/30 26/29/26 33/32/29 34/43/39
f 25/30/27 24/34/31 31/44/37 32/31/28
f 22/35/32 23/24/22 30/38/34 29/37/33
f 28/23/21 27/33/30 34/43/39 35/42/38
f 37/39/35 42/45/40 49/46/41 44/47/42
f 35/42/38 34/43/39 41/48/43 42/45/40
f 33/32/29 32/31/28 39/49/44 40/50/45
f 31/41/37 29/37/33 36/40/36 38/51/46
f 30/38/34 35/42/38 42/45/40 37/39/35
f 34/43/39 33/32/29 40/50/45 41/48/43
f 32/31/28 31/44/37 38/52/46 39/49/44
f 49/46/41 48/53/47 55/54/48 56/55/49
f 41/48/43 40/50/45 47/56/50 48/53/47
f 39/49/44 38/52/46 45/57/51 46/58/52
f 36/40/36 37/39/35 44/47/42 43/59/53
f 42/45/40 41/48/43 48/53/47 49/46/41
f 40/50/45 39/49/44 46/58/52 47/56/50
f 38/51/46 36/40/36 43/59/53 45/60/51
f 53/61/54 52/62/55 59/63/56 60/64/57
f 47/56/50 46/58/52 53/61/54 54/65/58
f 45/60/51 43/59/53 50/66/59 52/67/55
f 44/47/42 49/46/41 56/55/49 51/68/60
f 48/53/47 47/56/50 54/65/58 55/54/48
f 46/58/52 45/57/51 52/62/55 53/61/54
f 43/59/53 44/47/42 51/68/60 50/66/59
f 58/69/61 63/70/62 70/71/63 65/72/64
f 50/66/59 51/68/60 58/69/61 57/73/65
f 56/55/49 55/54/48 62/74/66 63/70/62
f 54/65/58 53/61/54 60/64/57 61/75/67
f 52/67/55 50/66/59 57/73/65 59/76/56
f 51/68/60 56/55/49 63/70/62 58/69/61
f 55/54/48 54/65/58 61/75/67 62/74/66
f 70/71/63 69/77/68 76/78/69 77/79/70
f 62/74/66 61/75/67 68/80/71 69/77/68
f 60/64/57 59/63/56 66/81/72 67/82/73
f 57/73/65 58/69/61 65/72/64 64/83/74
f 63/70/62 62/74/66 69/77/68 70/71/63
f 61/75/67 60/64/57 67/82/73 68/80/71
f 59/76/56 57/73/65 64/83/74 66/84/72
f 75/85/75 74/86/76 98/87/77 93/88/78
f 68/80/71 67/82/73 74/86/76 75/85/75
f 66/84/72 64/83/74 71/89/79 73/90/80
f 65/72/64 70/71/63 77/79/70 72/91/81
f 69/77/68 68/80/71 75/85/75 76/78/69
f 67/82/73 66/81/72 73/92/80 74/86/76
f 64/83/74 65/72/64 72/91/81 71/89/79
f 78/93/82 79/94/83 84/95/84 83/96/85 82/97/86 81/98/87 80/99/88
f 73/90/80 71/89/79 102/100/89 97/101/90
f 72/91/81 77/79/70 104/102/91 101/103/92
f 96/104/93 103/105/94 78/106/82 80/107/88
f 76/78/69 75/85/75 93/88/78 94/108/95
f 74/86/76 73/92/80 97/109/90 98/87/77
f 71/89/79 72/91/81 101/103/92 102/100/89
f 7/10/8 9/12/10 89/110/96 88/111/97
f 13/18/16 1/1/1 85/112/98 91/19/17
f 3/4/4 5/6/6 87/113/99 86/114/100
f 9/12/10 11/14/12 90/20/18 89/110/96
f 1/1/1 3/4/4 86/114/100 85/112/98
f 5/7/6 7/10/8 88/111/97 87/115/99
f 100/116/101 105/117/102 84/118/84 79/119/83
f 77/79/70 76/78/69 94/108/95 104/102/91
f 105/117/102 95/120/103 83/121/85 84/118/84
f 103/105/94 100/116/101 79/119/83 78/106/82
f 99/122/104 96/123/93 80/124/88 81/125/87
f 95/120/103 92/126/105 82/127/86 83/121/85
f 105/117/102 100/116/101 101/103/92 104/102/91
f 103/105/94 96/104/93 97/101/90 102/100/89
f 99/122/104 92/126/105 93/88/78 98/87/77
f 95/120/103 105/117/102 104/102/91 94/108/95
f 100/116/101 103/105/94 102/100/89 101/103/92
f 96/123/93 99/122/104 98/87/77 97/109/90
f 92/126/105 95/120/103 94/108/95 93/88/78
f 92/126/105 99/122/104 81/125/87 82/127/86
