# Blender 4.0.2
# www.blender.org
mtllib Tronco4.mtl
o Bark_4
v -17.546484 -0.000156 -0.049494
v -17.546064 0.115817 -0.044515
v -17.506216 -0.000097 -0.034123
v -17.509930 0.113395 -0.030684
v -17.493128 0.000035 0.006943
v -17.498178 0.112796 0.006253
v -17.517073 0.000140 0.042781
v -17.519657 0.114473 0.038482
v -17.560022 0.000140 0.046404
v -17.558193 0.117161 0.041732
v -17.589632 0.000035 0.015084
v -17.584768 0.118837 0.013558
v -17.583609 -0.000097 -0.027594
v -17.579370 0.118239 -0.024826
v -17.546408 -0.146529 -0.048580
v -17.506140 -0.146412 -0.033210
v -17.493050 -0.146149 0.007856
v -17.516996 -0.145938 0.043693
v -17.559944 -0.145938 0.047316
v -17.589556 -0.146149 0.015997
v -17.583530 -0.146412 -0.026681
v -17.488348 0.297765 -0.028957
v -17.519772 0.301257 -0.041045
v -17.478119 0.296903 0.003295
v -17.496786 0.299319 0.031427
v -17.530291 0.303194 0.034253
v -17.553406 0.305610 0.009646
v -17.548723 0.304748 -0.023864
v -17.480829 0.418261 -0.026699
v -17.508448 0.421958 -0.037360
v -17.471832 0.417347 0.001733
v -17.488232 0.419906 0.026525
v -17.517677 0.424011 0.029009
v -17.537998 0.426570 0.007314
v -17.533890 0.425656 -0.022223
v -17.434464 0.681319 -0.028234
v -17.458925 0.685308 -0.037727
v -17.426487 0.680334 -0.002941
v -17.441000 0.683095 0.019107
v -17.467077 0.687521 0.021307
v -17.485079 0.690281 0.002002
v -17.481451 0.689296 -0.024271
v -17.413956 0.827786 -0.028670
v -17.436884 0.830699 -0.037510
v -17.406488 0.827067 -0.005090
v -17.420105 0.829082 0.015474
v -17.444550 0.832315 0.017536
v -17.461418 0.834330 -0.000456
v -17.458006 0.833611 -0.024954
v -17.397591 1.095214 -0.025450
v -17.414396 1.098607 -0.032028
v -17.392099 1.094376 -0.007945
v -17.402060 1.096724 0.007304
v -17.419971 1.100490 0.008815
v -17.432344 1.102839 -0.004550
v -17.429865 1.102001 -0.022727
v -17.334038 1.337587 -0.029762
v -17.349468 1.340919 -0.035823
v -17.328995 1.336763 -0.013643
v -17.338133 1.339070 0.000395
v -17.354576 1.342769 0.001782
v -17.365938 1.345075 -0.010527
v -17.363665 1.344252 -0.027263
v -17.311520 1.444824 -0.031661
v -17.326784 1.448832 -0.037737
v -17.306517 1.443834 -0.015539
v -17.315542 1.446608 -0.001511
v -17.331799 1.451056 -0.000139
v -17.343044 1.453829 -0.012458
v -17.340813 1.452839 -0.029190
v -17.300068 1.547791 -0.032627
v -17.315849 1.548496 -0.038659
v -17.294937 1.547617 -0.016516
v -17.304321 1.548105 -0.002457
v -17.321152 1.548888 -0.001037
v -17.332758 1.549376 -0.013326
v -17.330399 1.549201 -0.030069
v -17.451443 0.968719 -0.002116
v -17.448502 0.967914 -0.023460
v -17.415665 0.962843 0.011783
v -17.436831 0.966463 0.013568
v -17.410362 0.961392 -0.026678
v -17.403887 0.960587 -0.006128
v -17.430218 0.964653 -0.034391
v -17.396082 1.222992 -0.024528
v -17.381863 1.219763 -0.033090
v -17.386982 1.221555 0.004516
v -17.398359 1.223789 -0.007792
v -17.361361 1.215737 -0.010913
v -17.370516 1.217972 0.003127
v -17.366409 1.216535 -0.027031
v -17.320429 1.515205 -0.049346
v -17.323656 1.486066 -0.049424
v -17.298981 1.482387 -0.039925
v -17.295973 1.511629 -0.039968
v -17.346273 1.519622 -0.009766
v -17.349751 1.490625 -0.009389
v -17.346167 1.489724 -0.035775
v -17.342724 1.518751 -0.035835
v -17.302532 1.513224 0.007444
v -17.305588 1.484027 0.008009
v -17.331795 1.488099 0.010084
v -17.328503 1.517177 0.009482
v -17.290890 1.481475 -0.014279
v -17.287954 1.510741 -0.014601
v -17.605684 -0.000156 -0.048700
v -17.606667 0.115817 -0.043802
v -17.571285 -0.000097 -0.022729
v -17.575775 0.117643 -0.020453
v -17.570143 0.000035 0.020357
v -17.574759 0.118094 0.018298
v -17.603117 0.000140 0.048114
v -17.604383 0.116830 0.043269
v -17.645376 0.000140 0.039640
v -17.642340 0.114803 0.035658
v -17.665100 0.000035 0.001317
v -17.660048 0.113540 0.001196
v -17.647436 -0.000097 -0.037998
v -17.644171 0.113991 -0.034167
v -17.605864 -0.146529 -0.047801
v -17.571465 -0.146412 -0.021831
v -17.570322 -0.146149 0.021255
v -17.603296 -0.145938 0.049012
v -17.645557 -0.145938 0.040538
v -17.665281 -0.146149 0.002215
v -17.647615 -0.146412 -0.037100
v -17.598381 0.287763 -0.021381
v -17.624939 0.282459 -0.041684
v -17.597595 0.289073 0.012432
v -17.623175 0.285402 0.034293
v -17.655855 0.279516 0.027740
v -17.671030 0.275846 -0.002292
v -17.657270 0.277156 -0.033189
v -17.637899 0.432060 -0.026365
v -17.660812 0.425107 -0.044162
v -17.637329 0.433777 0.003416
v -17.659534 0.428965 0.022754
v -17.687792 0.421248 0.017088
v -17.700823 0.416437 -0.009316
v -17.688816 0.418154 -0.036574
v -17.673985 0.548261 -0.031186
v -17.693836 0.540322 -0.046911
v -17.673609 0.550221 -0.004721
v -17.692993 0.544728 0.012556
v -17.717539 0.535917 0.007634
v -17.728764 0.530423 -0.015780
v -17.718216 0.532384 -0.040054
v -17.740429 0.704491 -0.043193
v -17.758795 0.696686 -0.057825
v -17.740116 0.706419 -0.018525
v -17.758089 0.701018 -0.002398
v -17.780815 0.692355 -0.006955
v -17.791182 0.686953 -0.028765
v -17.781382 0.688881 -0.051404
v -17.796764 0.869099 -0.052156
v -17.813311 0.864023 -0.065015
v -17.796356 0.870353 -0.030635
v -17.812393 0.866840 -0.016657
v -17.832798 0.861206 -0.020749
v -17.842207 0.857693 -0.039829
v -17.833534 0.858946 -0.059529
v -17.845228 1.114423 -0.059531
v -17.859758 1.112363 -0.070571
v -17.844772 1.114932 -0.041179
v -17.858734 1.113506 -0.029335
v -17.876600 1.111219 -0.032917
v -17.884918 1.109794 -0.049228
v -17.877422 1.110303 -0.065986
v -17.851984 1.226703 -0.059819
v -17.865467 1.226128 -0.070006
v -17.851538 1.226845 -0.042916
v -17.864466 1.226447 -0.032025
v -17.881035 1.225809 -0.035347
v -17.888765 1.225412 -0.050380
v -17.881838 1.225554 -0.065805
v -17.859880 1.187491 -0.020914
v -17.858143 1.153125 -0.020120
v -17.884480 1.150868 -0.025352
v -17.885828 1.185292 -0.026059
v -17.840351 1.188371 -0.064522
v -17.838306 1.154028 -0.064424
v -17.837629 1.154530 -0.037508
v -17.839685 1.188859 -0.038032
v -17.887072 1.184408 -0.073963
v -17.885733 1.149962 -0.073994
v -17.859682 1.151996 -0.080679
v -17.861403 1.186392 -0.080534
v -17.896790 1.149459 -0.049343
v -17.897968 1.183918 -0.049685
vn -0.0835 0.0183 -0.9963
vn -0.1009 0.0380 -0.9942
vn 0.7179 -0.0158 -0.6959
vn 0.7264 0.0201 -0.6869
vn 0.9891 -0.0294 0.1443
vn 0.9901 0.0230 0.1386
vn 0.4935 0.0084 0.8697
vn 0.5089 0.0246 0.8605
vn -0.3687 0.0673 0.9271
vn -0.3566 0.0242 0.9340
vn -0.9486 0.1032 0.2992
vn -0.9528 0.0220 0.3028
vn -0.8329 0.0904 -0.5460
vn -0.8199 0.1230 -0.5592
vn -0.0737 0.0332 -0.9967
vn -0.8309 0.0193 -0.5561
vn -0.0841 -0.0063 -0.9964
vn -0.8315 -0.0039 -0.5556
vn 0.9902 0.0014 0.1398
vn 0.7267 -0.0039 -0.6870
vn -0.9528 0.0014 0.3037
vn -0.3566 0.0056 0.9342
vn 0.5081 0.0056 0.8613
vn -0.9415 0.1453 0.3039
vn -0.9405 0.1597 0.2998
vn -0.8246 0.1339 -0.5497
vn 0.7279 -0.0559 -0.6834
vn 0.9873 -0.0778 0.1384
vn -0.3444 0.0830 0.9351
vn 0.5140 -0.0164 0.8576
vn -0.3596 0.0869 0.9290
vn -0.3443 0.0857 0.9349
vn -0.9364 0.1765 0.3033
vn 0.4970 -0.0320 0.8672
vn 0.7168 -0.0804 -0.6926
vn 0.9838 -0.1075 0.1432
vn -0.0935 0.0278 -0.9952
vn 0.9789 -0.1488 0.1397
vn 0.7200 -0.1169 -0.6840
vn 0.7313 -0.0572 -0.6797
vn 0.9877 -0.0760 0.1365
vn 0.5080 -0.0591 0.8593
vn -0.0771 0.0131 -0.9969
vn -0.8166 0.1441 -0.5590
vn -0.8295 0.0914 -0.5510
vn -0.9475 0.1075 0.3011
vn -0.9328 0.2031 0.2977
vn -0.8202 0.1680 -0.5468
vn -0.8205 0.0974 -0.5633
vn -0.0671 0.0197 -0.9976
vn -0.3401 0.0627 0.9383
vn -0.9448 0.1167 0.3060
vn 0.5197 -0.0231 0.8541
vn -0.0826 0.0065 -0.9966
vn -0.8034 0.2092 -0.5575
vn -0.8076 0.1815 -0.5611
vn -0.0768 -0.0018 -0.9970
vn -0.3600 0.0627 0.9309
vn 0.5036 -0.0079 0.8639
vn 0.4883 -0.0582 0.8707
vn -0.3614 0.1041 0.9266
vn 0.9887 -0.0508 0.1410
vn 0.7236 -0.0356 -0.6893
vn 0.7077 -0.1247 -0.6954
vn 0.9760 -0.1620 0.1455
vn -0.0894 0.0271 -0.9956
vn -0.1000 0.0235 -0.9947
vn -0.3387 0.0996 0.9356
vn 0.5019 -0.1025 0.8588
vn 0.4802 -0.2156 0.8502
vn -0.3668 -0.0878 0.9261
vn -0.9179 0.2592 0.3005
vn -0.3406 0.1191 0.9326
vn -0.9255 0.2271 0.3029
vn 0.4951 -0.1060 0.8624
vn 0.9587 -0.2463 0.1423
vn 0.9637 -0.2269 0.1403
vn 0.7019 -0.1963 -0.6847
vn 0.7085 -0.1827 -0.6817
vn -0.1000 -0.1515 -0.9834
vn -0.8348 -0.0372 -0.5492
vn -0.8396 -0.0501 -0.5409
vn -0.1109 -0.1337 -0.9848
vn 0.6901 -0.2673 -0.6725
vn 0.9450 -0.2960 0.1390
vn -0.9534 -0.0094 0.3015
vn 0.5511 0.6880 -0.4722
vn -0.0000 0.7344 -0.6787
vn -0.5001 0.7796 -0.3770
vn -0.5795 0.7905 0.1980
vn -0.1831 0.7597 0.6240
vn 0.4017 0.7088 0.5799
vn 0.7310 0.6764 0.0904
vn -0.3780 -0.0870 0.9217
vn -0.9541 -0.0299 0.2979
vn 0.9602 -0.2404 0.1421
vn 0.4776 -0.1810 0.8598
vn -0.9168 0.2681 0.2961
vn -0.3362 0.2070 0.9188
vn 0.6966 -0.2192 -0.6832
vn 0.5146 0.1060 0.8509
vn 0.9896 0.0418 0.1374
vn 0.7298 0.0648 -0.6806
vn -0.8002 0.2465 -0.5467
vn -0.0695 0.1569 -0.9852
vn 0.1961 0.0183 -0.9804
vn 0.2083 0.0392 -0.9773
vn 0.8894 0.0788 -0.4502
vn 0.8886 0.0193 -0.4583
vn 0.9095 0.0884 0.4061
vn 0.9123 0.0220 0.4090
vn 0.2578 0.0613 0.9643
vn 0.2483 0.0242 0.9684
vn -0.5932 0.0171 0.8049
vn -0.6031 0.0245 0.7973
vn -0.9995 -0.0109 0.0296
vn -0.9994 0.0227 0.0255
vn -0.6375 -0.0009 -0.7704
vn -0.6279 -0.1014 -0.7717
vn 0.2100 0.0355 -0.9771
vn -0.6436 0.0199 -0.7651
vn 0.1966 -0.0063 -0.9805
vn -0.6440 -0.0039 -0.7650
vn 0.9122 0.0014 0.4098
vn 0.8891 -0.0039 -0.4576
vn -0.9996 0.0014 0.0265
vn -0.6025 0.0056 0.7981
vn 0.2483 0.0056 0.9687
vn -0.9902 -0.1360 0.0329
vn -0.9748 -0.2209 0.0323
vn -0.6238 -0.1708 -0.7627
vn 0.8769 0.1681 -0.4503
vn 0.8935 0.2003 0.4019
vn -0.5869 -0.0399 0.8086
vn 0.2528 0.1096 0.9613
vn -0.5928 -0.0805 0.8013
vn -0.5736 -0.1182 0.8105
vn -0.9525 -0.3018 0.0399
vn 0.2301 0.1434 0.9626
vn 0.8562 0.2326 -0.4613
vn 0.8719 0.2819 0.4005
vn 0.1930 0.0317 -0.9807
vn 0.8522 0.3441 0.3942
vn 0.8427 0.2819 -0.4586
vn 0.8320 0.2878 -0.4743
vn 0.8449 0.3567 0.3987
vn 0.2309 0.1690 0.9582
vn 0.2052 0.0264 -0.9784
vn -0.5995 -0.2359 -0.7648
vn -0.6059 -0.2600 -0.7519
vn -0.9446 -0.3263 0.0351
vn -0.9737 -0.2261 0.0278
vn -0.6323 -0.1793 -0.7537
vn 0.1809 0.0116 -0.9834
vn -0.5884 -0.1397 0.7964
vn 0.2067 0.1643 0.9645
vn 0.1747 0.0128 -0.9845
vn -0.6309 -0.2079 -0.7475
vn 0.1880 -0.1210 -0.9747
vn 0.2146 0.1215 0.9691
vn -0.6058 -0.0944 0.7900
vn 0.8553 0.2099 -0.4737
vn 0.8759 0.2595 0.4068
vn 0.2386 -0.0717 0.9685
vn 0.9108 -0.0089 0.4127
vn 0.9113 -0.0638 0.4068
vn 0.2570 -0.0900 0.9622
vn -0.5969 -0.1696 0.7842
vn -0.9731 -0.2290 0.0257
vn 0.8850 -0.0314 -0.4645
vn 0.5833 0.7451 -0.3235
vn 0.1038 0.7202 -0.6860
vn -0.4785 0.6950 -0.5366
vn -0.7249 0.6888 0.0119
vn -0.4499 0.7063 0.5466
vn 0.1395 0.7340 0.6646
vn 0.5991 0.7512 0.2773
vn 0.2064 -0.1111 -0.9721
vn 0.8899 -0.0731 -0.4502
vn -0.9868 -0.1591 0.0287
vn -0.6313 -0.1496 -0.7610
vn 0.8728 0.1778 -0.4545
vn 0.1878 0.1377 -0.9725
vn -0.5891 -0.1324 0.7972
vn -0.6441 0.0971 -0.7588
vn -0.9959 0.0871 0.0250
vn -0.6034 0.1152 0.7891
vn 0.8952 0.1876 0.4041
vn 0.2386 0.1600 0.9578
vt 0.082188 0.049780
vt 0.148208 0.050702
vt 0.147678 0.073691
vt 0.081934 0.073571
vt 0.147727 0.097024
vt 0.081899 0.097392
vt 0.148215 0.120254
vt 0.082182 0.121285
vt 0.149307 0.142980
vt 0.082700 0.145339
vt 0.150974 0.165228
vt 0.083561 0.169686
vt 0.149296 0.028302
vt 0.257774 0.037193
vt 0.256768 0.056695
vt 0.083582 0.001336
vt 0.150937 0.006232
vt 0.082677 0.025772
vt 0.000183 0.048959
vt 0.000477 0.024477
vt 0.000141 0.097841
vt 0.000083 0.073422
vt 0.001003 0.171065
vt 0.000634 0.146628
vt 0.000336 0.122232
vt 0.000846 0.000083
vt 0.259321 0.017561
vt 0.329522 0.023357
vt 0.328532 0.040791
vt 0.256274 0.075967
vt 0.256277 0.095144
vt 0.257825 0.133684
vt 0.259394 0.153227
vt 0.256798 0.114329
vt 0.329619 0.147699
vt 0.328614 0.130197
vt 0.486634 0.123812
vt 0.487369 0.139315
vt 0.327947 0.112454
vt 0.327578 0.076320
vt 0.327627 0.094421
vt 0.327882 0.058398
vt 0.485860 0.092953
vt 0.485837 0.077572
vt 0.570057 0.078273
vt 0.569920 0.092156
vt 0.486128 0.108354
vt 0.486060 0.062137
vt 0.487182 0.031125
vt 0.486510 0.046644
vt 0.650027 0.053538
vt 0.651004 0.040859
vt 0.730364 0.046422
vt 0.729774 0.057241
vt 0.571612 0.050096
vt 0.570719 0.064301
vt 0.571445 0.120129
vt 0.572477 0.134477
vt 0.570486 0.106059
vt 0.572445 0.035648
vt 0.804261 0.069998
vt 0.803970 0.060042
vt 0.877737 0.060093
vt 0.877963 0.069976
vt 0.649606 0.116788
vt 0.648051 0.104230
vt 0.729196 0.101888
vt 0.729788 0.112969
vt 0.647146 0.091510
vt 0.647368 0.078711
vt 0.728888 0.079413
vt 0.728866 0.090662
vt 0.648579 0.066079
vt 0.729237 0.068241
vt 0.651010 0.129413
vt 0.730490 0.123843
vt 0.877889 0.109436
vt 0.878089 0.099571
vt 0.944935 0.100266
vt 0.945229 0.110714
vt 0.804245 0.119789
vt 0.804276 0.109808
vt 0.877709 0.119270
vt 0.804569 0.099871
vt 0.804764 0.089918
vt 0.878192 0.089711
vt 0.804635 0.079943
vt 0.878147 0.079859
vt 0.804085 0.050036
vt 0.877577 0.050254
vt 0.945336 0.069173
vt 0.945623 0.058620
vt 0.967122 0.056513
vt 0.966575 0.068367
vt 0.944773 0.079608
vt 0.944852 0.089917
vt 0.944601 0.121079
vt 0.944615 0.048207
vt 0.043069 0.348404
vt 0.043069 0.358177
vt 0.035428 0.364271
vt 0.025900 0.362096
vt 0.021659 0.353291
vt 0.025899 0.344486
vt 0.035428 0.342311
vt 0.966718 0.113173
vt 0.966606 0.127654
vt 0.965776 0.090302
vt 0.966204 0.101327
vt 0.983434 0.125758
vt 0.980294 0.112582
vt 0.997310 0.108554
vt 0.999917 0.117639
vt 0.966030 0.079419
vt 0.966970 0.041934
vt 0.978476 0.101121
vt 0.977733 0.090202
vt 0.995952 0.089620
vt 0.996663 0.099002
vt 0.977836 0.079403
vt 0.996364 0.080184
vt 0.980684 0.057242
vt 0.983765 0.044120
vt 0.999917 0.052424
vt 0.996987 0.061295
vt 0.978866 0.068611
vt 0.996156 0.070679
vt 0.082231 0.292165
vt 0.148116 0.290705
vt 0.149171 0.313139
vt 0.082828 0.316159
vt 0.150787 0.335421
vt 0.083832 0.340572
vt 0.083301 0.172410
vt 0.150187 0.176803
vt 0.148765 0.199161
vt 0.082483 0.196728
vt 0.147920 0.221803
vt 0.081971 0.220737
vt 0.147647 0.244807
vt 0.081755 0.244607
vt 0.147620 0.267912
vt 0.246540 0.266299
vt 0.247154 0.286688
vt 0.081875 0.268394
vt 0.000298 0.293298
vt 0.000109 0.268851
vt 0.001149 0.342145
vt 0.000686 0.317766
vt 0.000083 0.244451
vt 0.000196 0.220079
vt 0.000398 0.195676
vt 0.000707 0.171231
vt 0.246505 0.245763
vt 0.333537 0.246970
vt 0.333573 0.264546
vt 0.248336 0.306685
vt 0.250029 0.326210
vt 0.247019 0.225254
vt 0.249744 0.185349
vt 0.248115 0.205041
vt 0.333962 0.229466
vt 0.405258 0.231377
vt 0.404948 0.247569
vt 0.334842 0.212062
vt 0.335017 0.299422
vt 0.336428 0.316848
vt 0.334067 0.282004
vt 0.336181 0.194683
vt 0.406967 0.311109
vt 0.406021 0.295617
vt 0.505551 0.290936
vt 0.506305 0.305430
vt 0.406797 0.199913
vt 0.405891 0.215496
vt 0.405343 0.279897
vt 0.404972 0.263829
vt 0.504800 0.262561
vt 0.504820 0.248418
vt 0.606323 0.249197
vt 0.606366 0.261652
vt 0.505041 0.276695
vt 0.505028 0.234291
vt 0.506245 0.205676
vt 0.505508 0.220111
vt 0.606673 0.274166
vt 0.758956 0.260579
vt 0.758813 0.271666
vt 0.607027 0.224212
vt 0.606564 0.236714
vt 0.607142 0.286676
vt 0.607677 0.299113
vt 0.607601 0.211753
vt 0.758338 0.227527
vt 0.757470 0.216374
vt 0.781267 0.210605
vt 0.781183 0.225341
vt 0.758794 0.238653
vt 0.759163 0.249637
vt 0.758479 0.282912
vt 0.757663 0.294138
vt 0.013852 0.364271
vt 0.004324 0.362096
vt 0.000083 0.353291
vt 0.004324 0.344486
vt 0.013852 0.342311
vt 0.021493 0.348404
vt 0.021493 0.358178
vt 0.780971 0.272318
vt 0.781589 0.284715
vt 0.780168 0.249318
vt 0.780426 0.260717
vt 0.797865 0.283510
vt 0.795852 0.271781
vt 0.815963 0.269003
vt 0.817479 0.278152
vt 0.780622 0.237735
vt 0.781689 0.299492
vt 0.794753 0.260618
vt 0.794503 0.249489
vt 0.815862 0.250327
vt 0.815526 0.259723
vt 0.795517 0.238213
vt 0.816214 0.240890
vt 0.801148 0.296718
vt 0.820626 0.286815
vt 0.797492 0.226378
vt 0.817610 0.231611
vt 0.800806 0.213093
vt 0.820626 0.222803
s 1
usemtl Bark_4
f 1/1/1 2/2/2 4/3/3 3/4/4
f 3/4/4 4/3/3 6/5/5 5/6/6
f 5/6/6 6/5/5 8/7/7 7/8/8
f 7/8/8 8/7/7 10/9/9 9/10/10
f 9/10/10 10/9/9 12/11/11 11/12/12
f 2/2/2 14/13/13 28/14/14 23/15/15
f 11/16/12 12/17/11 14/13/13 13/18/16
f 13/18/16 14/13/13 2/2/2 1/1/1
f 13/18/16 1/1/1 15/19/17 21/20/18
f 3/4/4 5/6/6 17/21/19 16/22/20
f 9/10/10 11/12/12 20/23/21 19/24/22
f 1/1/1 3/4/4 16/22/20 15/19/17
f 5/6/6 7/8/8 18/25/23 17/21/19
f 11/16/12 13/18/16 21/20/18 20/26/21
f 7/8/8 9/10/10 19/24/22 18/25/23
f 28/14/14 27/27/24 34/28/25 35/29/26
f 6/5/5 4/3/3 22/30/27 24/31/28
f 12/11/11 10/9/9 26/32/29 27/33/24
f 4/3/3 2/2/2 23/15/15 22/30/27
f 8/7/7 6/5/5 24/31/28 25/34/30
f 14/13/13 12/17/11 27/27/24 28/14/14
f 10/9/9 8/7/7 25/34/30 26/32/29
f 34/35/25 33/36/31 40/37/32 41/38/33
f 26/32/29 25/34/30 32/39/34 33/36/31
f 24/31/28 22/30/27 29/40/35 31/41/36
f 23/15/15 28/14/14 35/29/26 30/42/37
f 27/33/24 26/32/29 33/36/31 34/35/25
f 25/34/30 24/31/28 31/41/36 32/39/34
f 22/30/27 23/15/15 30/42/37 29/40/35
f 38/43/38 36/44/39 43/45/40 45/46/41
f 32/39/34 31/41/36 38/43/38 39/47/42
f 29/40/35 30/42/37 37/48/43 36/44/39
f 35/29/26 34/28/25 41/49/33 42/50/44
f 33/36/31 32/39/34 39/47/42 40/37/32
f 31/41/36 29/40/35 36/44/39 38/43/38
f 30/42/37 35/29/26 42/50/44 37/48/43
f 79/51/45 78/52/46 55/53/47 56/54/48
f 37/48/43 42/50/44 49/55/49 44/56/50
f 41/38/33 40/37/32 47/57/51 48/58/52
f 39/47/42 38/43/38 45/46/41 46/59/53
f 36/44/39 37/48/43 44/56/50 43/45/40
f 42/50/44 41/49/33 48/60/52 49/55/49
f 40/37/32 39/47/42 46/59/53 47/57/51
f 86/61/54 85/62/55 63/63/56 58/64/57
f 81/65/58 80/66/59 53/67/60 54/68/61
f 83/69/62 82/70/63 50/71/64 52/72/65
f 84/73/66 79/51/45 56/54/48 51/74/67
f 78/75/46 81/65/58 54/68/61 55/76/47
f 80/66/59 83/69/62 52/72/65 53/67/60
f 82/70/63 84/73/66 51/74/67 50/71/64
f 61/77/68 60/78/69 67/79/70 68/80/71
f 88/81/72 87/82/73 61/77/68 62/83/74
f 90/84/75 89/85/76 59/86/77 60/78/69
f 91/87/78 86/61/54 58/64/57 57/88/79
f 85/62/55 88/89/72 62/90/74 63/63/56
f 87/82/73 90/84/75 60/78/69 61/77/68
f 89/85/76 91/87/78 57/88/79 59/86/77
f 65/91/80 70/92/81 98/93/82 93/94/83
f 59/86/77 57/88/79 64/95/84 66/96/85
f 58/64/57 63/63/56 70/92/81 65/91/80
f 62/83/74 61/77/68 68/80/71 69/97/86
f 60/78/69 59/86/77 66/96/85 67/79/70
f 57/88/79 58/64/57 65/91/80 64/95/84
f 63/63/56 62/90/74 69/98/86 70/92/81
f 71/99/87 72/100/88 77/101/89 76/102/90 75/103/91 74/104/92 73/105/93
f 69/97/86 68/80/71 102/106/94 97/107/95
f 67/79/70 66/96/85 104/108/96 101/109/97
f 96/110/98 103/111/99 75/112/91 76/113/90
f 64/95/84 65/91/80 93/94/83 94/114/100
f 70/92/81 69/98/86 97/115/95 98/93/82
f 68/80/71 67/79/70 101/109/97 102/106/94
f 43/45/40 44/56/50 84/73/66 82/70/63
f 46/59/53 45/46/41 83/69/62 80/66/59
f 48/58/52 47/57/51 81/65/58 78/75/46
f 44/56/50 49/55/49 79/51/45 84/73/66
f 45/46/41 43/45/40 82/70/63 83/69/62
f 47/57/51 46/59/53 80/66/59 81/65/58
f 49/55/49 48/60/52 78/52/46 79/51/45
f 52/72/65 50/71/64 91/87/78 89/85/76
f 54/68/61 53/67/60 90/84/75 87/82/73
f 56/54/48 55/53/47 88/89/72 85/62/55
f 50/71/64 51/74/67 86/61/54 91/87/78
f 53/67/60 52/72/65 89/85/76 90/84/75
f 55/76/47 54/68/61 87/82/73 88/81/72
f 51/74/67 56/54/48 85/62/55 86/61/54
f 100/116/101 105/117/102 73/118/93 74/119/92
f 66/96/85 64/95/84 94/114/100 104/108/96
f 105/117/102 95/120/103 71/121/87 73/118/93
f 103/111/99 100/116/101 74/119/92 75/112/91
f 99/122/104 96/123/98 76/124/90 77/125/89
f 95/120/103 92/126/105 72/127/88 71/121/87
f 105/117/102 100/116/101 101/109/97 104/108/96
f 103/111/99 96/110/98 97/107/95 102/106/94
f 99/122/104 92/126/105 93/94/83 98/93/82
f 95/120/103 105/117/102 104/108/96 94/114/100
f 100/116/101 103/111/99 102/106/94 101/109/97
f 96/123/98 99/122/104 98/93/82 97/115/95
f 92/126/105 95/120/103 94/114/100 93/94/83
f 92/126/105 99/122/104 77/125/89 72/127/88
f 106/128/106 107/129/107 109/130/108 108/131/109
f 108/131/109 109/130/108 111/132/110 110/133/111
f 110/134/111 111/135/110 113/136/112 112/137/113
f 112/137/113 113/136/112 115/138/114 114/139/115
f 114/139/115 115/138/114 117/140/116 116/141/117
f 107/129/107 119/142/118 133/143/119 128/144/120
f 116/141/117 117/140/116 119/142/118 118/145/121
f 118/145/121 119/142/118 107/129/107 106/128/106
f 118/145/121 106/128/106 120/146/122 126/147/123
f 108/131/109 110/133/111 122/148/124 121/149/125
f 114/139/115 116/141/117 125/150/126 124/151/127
f 106/128/106 108/131/109 121/149/125 120/146/122
f 110/134/111 112/137/113 123/152/128 122/153/124
f 116/141/117 118/145/121 126/147/123 125/150/126
f 112/137/113 114/139/115 124/151/127 123/152/128
f 133/143/119 132/154/129 139/155/130 140/156/131
f 111/132/110 109/130/108 127/157/132 129/158/133
f 117/140/116 115/138/114 131/159/134 132/154/129
f 109/130/108 107/129/107 128/144/120 127/157/132
f 113/136/112 111/135/110 129/160/133 130/161/135
f 119/142/118 117/140/116 132/154/129 133/143/119
f 115/138/114 113/136/112 130/161/135 131/159/134
f 139/155/130 138/162/136 145/163/137 146/164/138
f 131/159/134 130/161/135 137/165/139 138/162/136
f 129/158/133 127/157/132 134/166/140 136/167/141
f 128/144/120 133/143/119 140/156/131 135/168/142
f 132/154/129 131/159/134 138/162/136 139/155/130
f 130/161/135 129/160/133 136/169/141 137/165/139
f 127/157/132 128/144/120 135/168/142 134/166/140
f 143/170/143 141/171/144 148/172/145 150/173/146
f 137/165/139 136/169/141 143/174/143 144/175/147
f 134/166/140 135/168/142 142/176/148 141/171/144
f 140/156/131 139/155/130 146/164/138 147/177/149
f 138/162/136 137/165/139 144/175/147 145/163/137
f 136/167/141 134/166/140 141/171/144 143/170/143
f 135/168/142 140/156/131 147/177/149 142/176/148
f 154/178/150 153/179/151 160/180/152 161/181/153
f 142/176/148 147/177/149 154/178/150 149/182/154
f 146/164/138 145/163/137 152/183/155 153/179/151
f 144/175/147 143/174/143 150/184/146 151/185/156
f 141/171/144 142/176/148 149/182/154 148/172/145
f 147/177/149 146/164/138 153/179/151 154/178/150
f 145/163/137 144/175/147 151/185/156 152/183/155
f 156/186/157 161/181/153 168/187/158 163/188/159
f 152/183/155 151/185/156 158/189/160 159/190/161
f 150/173/146 148/172/145 155/191/162 157/192/163
f 149/182/154 154/178/150 161/181/153 156/186/157
f 153/179/151 152/183/155 159/190/161 160/180/152
f 151/185/156 150/184/146 157/193/163 158/189/160
f 148/172/145 149/182/154 156/186/157 155/191/162
f 165/194/164 164/195/165 182/196/166 177/197/167
f 160/180/152 159/190/161 166/198/168 167/199/169
f 158/189/160 157/193/163 164/195/165 165/194/164
f 155/191/162 156/186/157 163/188/159 162/200/170
f 161/181/153 160/180/152 167/199/169 168/187/158
f 159/190/161 158/189/160 165/194/164 166/198/168
f 157/192/163 155/191/162 162/200/170 164/201/165
f 169/202/171 170/203/172 175/204/173 174/205/174 173/206/175 172/207/176 171/208/177
f 162/200/170 163/188/159 186/209/178 181/210/179
f 168/187/158 167/199/169 188/211/180 185/212/181
f 180/213/182 187/214/183 170/215/172 169/216/171
f 166/198/168 165/194/164 177/197/167 178/217/184
f 164/201/165 162/200/170 181/210/179 182/218/166
f 163/188/159 168/187/158 185/212/181 186/209/178
f 184/219/185 189/220/186 174/221/174 175/222/173
f 167/199/169 166/198/168 178/217/184 188/211/180
f 189/220/186 179/223/187 173/224/175 174/221/174
f 187/214/183 184/219/185 175/222/173 170/215/172
f 183/225/188 180/213/182 169/216/171 171/226/177
f 179/223/187 176/227/189 172/228/176 173/224/175
f 189/220/186 184/219/185 185/212/181 188/211/180
f 187/214/183 180/213/182 181/210/179 186/209/178
f 183/229/188 176/227/189 177/197/167 182/196/166
f 179/223/187 189/220/186 188/211/180 178/217/184
f 184/219/185 187/214/183 186/209/178 185/212/181
f 180/213/182 183/225/188 182/218/166 181/210/179
f 176/227/189 179/223/187 178/217/184 177/197/167
f 176/227/189 183/229/188 171/230/177 172/228/176
